<?xml version="1.0" encoding="utf-8"?>
<!-- Generator: Adobe Illustrator 21.0.2, SVG Export Plug-In . SVG Version: 6.00 Build 0)  -->
<svg version="1.1" id="レイヤー_1" xmlns="http://www.w3.org/2000/svg" xmlns:xlink="http://www.w3.org/1999/xlink" x="0px"
	 y="0px" viewBox="0 0 1038.2 299.2" style="enable-background:new 0 0 1038.2 299.2;" xml:space="preserve">
<style type="text/css">
	.st0{fill:none;}
	.st1{fill:#FFFFFF;}
</style>
<g>
	<title>アートボード 1</title>
	<path class="st0" d="M743.9,223.7c-6.6,0-11.9,2.2-16,6.6c-4.1,4.4-6.1,10.1-6.1,17c0,7.5,2,13.4,6,17.7c4.1,4.4,9.5,6.6,16.2,6.6
		s12.1-2.2,16.2-6.5c4-4.3,6.1-10.1,6.1-17.4c0-7.3-2-13.1-6.1-17.4C756.1,225.9,750.6,223.7,743.9,223.7z"/>
	<polygon class="st0" points="236.8,220.9 258.7,214.3 249.1,182.5 	"/>
	<path class="st0" d="M473.2,236.4c6.1,0,11-2,14.7-5.9c3.7-4,5.5-9.2,5.5-15.8c0-6.6-1.8-11.9-5.5-15.8c-3.7-4-8.6-6-14.7-6
		c-6,0-10.8,2-14.5,6c-3.7,4-5.6,9.2-5.6,15.5c0,6.8,1.8,12.2,5.4,16.1S467,236.4,473.2,236.4z"/>
	<path class="st0" d="M168.4,236.6c4.6,1.1,9.1-0.9,13.4-5.8c4.3-4.9,7.4-11.6,9.4-20.1c1.9-8.5,2.1-15.9,0.3-22.2
		c-1.7-6.3-4.9-10-9.5-11c-4.6-1-9,0.9-13.3,5.8c-4.3,4.9-7.4,11.5-9.3,19.7c-2,8.6-2.1,16.1-0.4,22.5
		C160.6,232,163.8,235.7,168.4,236.6z"/>
	<polygon class="st0" points="72.6,198.4 98.3,184.3 77.8,147 	"/>
	<path class="st0" d="M937.9,173c-2.9,5.3-3.7,11.5-2.3,17.4c1.4,6.9,4.4,12.1,9,15.7c4.4,3.5,10.2,4.9,15.7,3.6
		c6.1-1.3,10.7-4.4,13.6-9.4c2.9-5.1,3.6-11.1,2.2-17.8c-1.4-6.7-4.4-11.9-9.1-15.5c-4.6-3.5-10.5-4.7-16.1-3.4
		C945.3,164.6,940.6,168.1,937.9,173z"/>
	<path class="st1" d="M127,168.6l-11.8,6.5L66.4,86.4L52,229.7l54.8-30.1l8.7,15.8l16.8-9.2l-8.7-15.8l11.9-6.5L127,168.6z
		 M72.6,198.4l5.2-51.4l20.5,37.3L72.6,198.4z"/>
	<path class="st1" d="M166,247.3c7.3,1.7,14.3-0.2,21-5.7c7.5-6.1,12.7-15.4,15.6-28.1s2.3-23.4-1.8-32.2
		c-3.6-7.9-9.1-12.6-16.5-14.3s-14.4,0.2-21.1,5.7c-7.5,6.1-12.6,15.3-15.5,27.7c-3,13-2.4,23.9,1.6,32.6
		C153.1,240.9,158.7,245.7,166,247.3z M159.3,203.1c1.9-8.3,5-14.9,9.3-19.7c4.3-4.8,8.7-6.8,13.3-5.8c4.6,1.1,7.8,4.7,9.5,11
		s1.6,13.7-0.3,22.2c-1.9,8.5-5.1,15.2-9.4,20.1s-8.8,6.8-13.4,5.8c-4.7-1.1-7.8-4.7-9.5-11C157.2,219.2,157.3,211.7,159.3,203.1
		L159.3,203.1z"/>
	<path class="st1" d="M283.1,207l-10.1,3l-22.8-75.5l-34.2,107l46.6-14.1l4.1,13.5l14.3-4.3l-4.1-13.5l10.1-3L283.1,207z M236.8,221
		l12.3-38.4l9.6,31.8L236.8,221z"/>
	<polygon class="st1" points="414.6,170 361.8,51.9 317.8,175.2 335.2,181.4 364,100.6 417,218.4 460.6,95.9 443.2,89.7 	"/>
	<path class="st1" d="M447.4,240c6.9,7,15.4,10.5,25.5,10.5s18.8-3.4,26-10.2c7-6.9,10.5-15.4,10.5-25.6c0.2-9.6-3.6-18.8-10.4-25.5
		c-14.3-13.8-37-13.9-51.4-0.1c-6.8,6.5-10.7,15.6-10.5,25C437,224.5,440.4,233.1,447.4,240z M458.6,198.9c3.7-4,8.6-6,14.5-6
		c6,0,10.9,2,14.7,6c3.7,4,5.5,9.2,5.5,15.8s-1.8,11.9-5.5,15.8c-3.7,4-8.6,5.9-14.7,5.9c-6.1,0-11-2-14.7-6
		c-3.6-4-5.4-9.3-5.4-16.1C453,208,454.9,202.9,458.6,198.9z"/>
	<polygon class="st1" points="540.5,145.5 531,148.7 524.3,129.2 512,133.4 518.6,152.9 513.4,154.7 517.3,166.2 522.5,164.4 
		536.8,206.3 549.1,202.1 534.9,160.2 544.5,157 	"/>
	<polygon class="st1" points="574.1,265.9 596.9,276.3 629.7,204.3 680.6,227.4 690.3,206 639.5,182.8 656,146.5 708.7,170.5 
		718.5,149 642.9,114.7 	"/>
	<path class="st1" d="M783.8,247.7c0.2-10.5-3.9-20.7-11.5-28.1c-15.8-15.2-40.8-15.2-56.6-0.1c-7.5,7.1-11.8,17.1-11.6,27.5
		c0,11.5,3.8,21,11.4,28.5c6.3,6.5,14.7,10.5,23.7,11.3h9c9.1-0.8,17.6-4.7,24.1-11.1C780,268.2,783.8,258.9,783.8,247.7z
		 M760.1,265.2c-4,4.3-9.4,6.5-16.2,6.5c-6.8,0-12.2-2.2-16.2-6.6c-4-4.3-6-10.3-6-17.7c0-7,2-12.6,6.1-17c4.1-4.4,9.4-6.6,16-6.6
		c6.7,0,12.1,2.2,16.2,6.6c4.1,4.4,6.1,10.2,6.1,17.4C766.2,255,764.2,260.8,760.1,265.2L760.1,265.2z"/>
	<path class="st1" d="M828.2,226.6c-7.7,3.1-13.6-0.2-17.5-10l-13.7-34l-13.7,5.5l13.8,34.2c2.2,5.4,4.4,9.3,6.6,11.6
		c2.6,2.7,5.8,4.7,9.4,5.9c6.2,2.2,12.9,1.8,20-1.1c7.1-2.9,12.2-7.2,15.2-13.1c1.7-3.3,2.6-7,2.5-10.7c-0.3-4.5-1.4-8.9-3.2-13
		l-13.8-34.2l-13.7,5.5l13.7,33.9C837.8,217.1,835.9,223.5,828.2,226.6z"/>
	<path class="st1" d="M874.9,203.8l-14.8,54.6l12.7,3.4l7.1-26.3c1.8-6.8,4-11.3,6.5-13.6c2.5-2.3,5.8-2.8,10-1.7
		c3.8,1,6.2,2.8,7.1,5.3c0.9,2.5,0.6,6.4-0.8,11.8l-8.3,30.5l12.7,3.4l9.1-33.4c2.1-7.7,2.1-13.7-0.1-17.9c-2.5-5-6.9-8.3-13.2-10
		c-5.5-1.5-11.1-0.7-16.7,2.5l1.4-5L874.9,203.8z"/>
	<path class="st1" d="M944.6,149.3c-9.3,1.7-17.3,7.5-21.9,15.8c-5,8.5-6.3,18.1-4.1,28.8c2.3,10.9,7.4,19.4,15.3,25.4
		c7.6,5.8,17.4,7.9,26.7,5.7c8.3-1.7,15-6.4,20.2-14.1l1.5,7.5l16.7-3.4L973.3,90.5l-16.7,3.4l12.6,61
		C961.2,149.4,953,147.5,944.6,149.3z M966.9,166.9c4.7,3.6,7.7,8.8,9.1,15.5c1.4,6.7,0.7,12.7-2.2,17.8c-2.9,5-7.4,8.1-13.6,9.4
		c-5.5,1.2-11.3-0.1-15.6-3.6c-4.6-3.6-7.6-8.8-9-15.7c-1.4-5.9-0.6-12,2.3-17.3c2.7-4.9,7.5-8.4,13-9.4
		C956.4,162.2,962.3,163.5,966.9,166.9z"/>
	<ellipse class="st1" cx="51" cy="73.9" rx="8.5" ry="8.5"/>
	<ellipse class="st1" cx="42.9" cy="41.8" rx="16.3" ry="16.3"/>
	<ellipse class="st1" cx="983.1" cy="73.1" rx="9.2" ry="9.2"/>
	<path class="st1" d="M997.1,17.3c-9.8,0-17.7,7.9-17.7,17.7c0,9.8,7.9,17.7,17.7,17.7c8.9,0,16.4-6.6,17.5-15.3v-4.7
		C1013.5,23.9,1006,17.3,997.1,17.3z"/>
	<circle class="st1" cx="658.2" cy="94.5" r="7.3"/>
	<ellipse class="st1" cx="667.7" cy="64.2" rx="14.1" ry="14.1"/>
	<ellipse class="st1" cx="644.5" cy="30.6" rx="17.8" ry="17.8"/>
</g>
</svg>
