<svg id="レイヤー_1" data-name="レイヤー 1" xmlns="http://www.w3.org/2000/svg" xmlns:xlink="http://www.w3.org/1999/xlink" viewBox="0 0 1364.37 384"><defs><style>.cls-1,.cls-2{fill:none;}.cls-1{clip-rule:evenodd;}.cls-3{clip-path:url(#clip-path);}.cls-4{clip-path:url(#clip-path-2);}.cls-5{isolation:isolate;}.cls-6{clip-path:url(#clip-path-3);}.cls-7{clip-path:url(#clip-path-4);}.cls-8{clip-path:url(#clip-path-5);}.cls-9{fill:#6790c1;}</style><clipPath id="clip-path"><polygon class="cls-1" points="679.37 384 1365.37 384 1365.37 5 679.37 5 -6.63 5 -6.63 384 679.37 384"/></clipPath><clipPath id="clip-path-2"><rect class="cls-2" x="-1.63" y="-23" width="1366" height="1002"/></clipPath><clipPath id="clip-path-3"><rect class="cls-2" x="-6.63" y="5" width="1372" height="379"/></clipPath><clipPath id="clip-path-4"><path class="cls-1" d="M1169.37,5c-48.81,0-73.63,15.32-97.64,30.14-24.17,14.91-49.16,30.33-98.35,30.33S899.19,50,875,35.14C851,20.32,826.18,5,777.38,5s-73.64,15.32-97.65,30.14C655.56,50,630.57,65.47,581.38,65.47S507.19,50,483,35.14C459,20.32,434.19,5,385.38,5s-73.64,15.32-97.65,30.14C263.56,50,238.57,65.47,189.37,65.47S115.19,50,91,35.14C67,20.32,42.17,5-6.63,5V384h1372V65.47c-49.19,0-74.18-15.42-98.35-30.33C1243,20.32,1218.18,5,1169.37,5"/></clipPath><clipPath id="clip-path-5"><rect class="cls-2" x="-1.63" y="5" width="1366" height="379"/></clipPath></defs><title>アートボード 1</title><g class="cls-3"><g class="cls-4"><g class="cls-5"><g class="cls-6"><g class="cls-7"><g class="cls-8"><rect class="cls-9" x="-11.63" width="1382" height="389"/></g></g></g></g></g></g></svg>