<?xml version="1.0" encoding="UTF-8"?>
<svg width="24px" height="26px" viewBox="0 0 24 26" version="1.1" xmlns="http://www.w3.org/2000/svg" xmlns:xlink="http://www.w3.org/1999/xlink">
    <!-- Generator: Sketch 42 (36781) - http://www.bohemiancoding.com/sketch -->
    <title>alarm</title>
    <desc>Created with Sketch.</desc>
    <defs></defs>
    <g id="Symbols" stroke="none" stroke-width="1" fill="none" fill-rule="evenodd" fill-opacity="0.87">
        <g id="after-login-pc-header" transform="translate(-1399.000000, -17.000000)" fill-rule="nonzero" fill="#000000">
            <g id="alarm" transform="translate(1399.000000, 17.000000)">
                <g id="Capa_1">
                    <g id="Group">
                        <path d="M23.6943673,21.4102909 C21.4119184,19.2210909 20.2550204,16.6300727 20.2550204,13.7090909 L20.2550204,9.45738182 C20.2760816,6.21589091 18.0176327,4.06592727 16.0770612,3.20981818 C15.5211429,2.96447273 14.9480816,2.77538182 14.3657143,2.63498182 L14.3657143,2.36363636 C14.3657143,1.06032727 13.267102,0 11.9167347,0 C10.5663673,0 9.4677551,1.06032727 9.4677551,2.36363636 L9.4677551,2.67610909 C8.94318367,2.81272727 8.42742857,2.99094545 7.92685714,3.21407273 C5.78204082,4.16803636 3.60930612,6.46738182 3.58971429,9.45454545 L3.58971429,13.7090909 C3.58971429,16.7288727 2.48473469,19.3198909 0.305632653,21.4102909 C0.175836735,21.5350909 0.128816327,21.7189818 0.183673469,21.8877455 C0.238530612,22.0565091 0.386938776,22.1813091 0.567673469,22.2115636 L5.21632653,22.9863636 C6.08228571,23.1305455 6.87967347,23.2487273 7.63836735,23.3461091 C8.49355102,24.9628364 10.1720816,26 12.0058776,26 C13.8401633,26 15.5191837,24.9618909 16.3733878,23.3442182 C17.1291429,23.2473091 17.9226122,23.1296 18.7836735,22.9858909 L23.4318367,22.2110909 C23.6125714,22.1813091 23.7604898,22.0560364 23.8158367,21.8872727 C23.8711837,21.7189818 23.8241633,21.5350909 23.6943673,21.4102909 Z M10.4468571,2.36363636 C10.4468571,1.58174545 11.1061224,0.945454545 11.9162449,0.945454545 C12.7263673,0.945454545 13.3856327,1.58174545 13.3856327,2.36363636 L13.3856327,2.44967273 C12.4094694,2.31447273 11.419102,2.32014545 10.4468571,2.47189091 L10.4468571,2.36363636 Z M12.0058776,25.0545455 C10.7657143,25.0545455 9.60685714,24.4598545 8.86285714,23.4874545 C9.95755102,23.5961818 10.9792653,23.6510182 12.0004898,23.6510182 C13.0256327,23.6510182 14.0507755,23.5961818 15.1498776,23.4860364 C14.4053878,24.4593818 13.2460408,25.0545455 12.0058776,25.0545455 Z M18.6171429,22.0541455 C17.6772245,22.2106182 16.8156735,22.3377818 16.0016327,22.438 L15.9986939,22.438 C15.6401633,22.4819636 15.2914286,22.5202545 14.9500408,22.5533455 C14.9466122,22.5538182 14.9426939,22.5538182 14.9392653,22.5542909 C14.6272653,22.5845455 14.3221224,22.6086545 14.0204082,22.6299273 C13.963102,22.6341818 13.9062857,22.6374909 13.8489796,22.6412727 C13.5874286,22.6578182 13.3288163,22.6710545 13.0716735,22.6805091 C13.0187755,22.6824 12.9658776,22.6852364 12.9129796,22.6866545 C12.3036735,22.7065091 11.7026939,22.7065091 11.0938776,22.6871273 C11.04,22.6852364 10.9851429,22.6828727 10.9312653,22.6805091 C10.677551,22.6710545 10.4218776,22.6582909 10.1637551,22.6417455 C10.1030204,22.6379636 10.0422857,22.6341818 9.98106122,22.6299273 C9.68718367,22.6096 9.38987755,22.5854909 9.08571429,22.5566545 C9.07493878,22.5557091 9.06465306,22.5547636 9.05436735,22.5538182 C8.71542857,22.5212 8.36914286,22.4829091 8.01306122,22.4394182 L8.00865306,22.4394182 C7.19167347,22.3396727 6.32718367,22.2115636 5.38285714,22.0546182 L1.63053061,21.4287273 C3.58138776,19.2759273 4.56930612,16.6834909 4.56930612,13.7090909 L4.56930612,9.45738182 C4.58595918,6.88810909 6.47363265,4.90170909 8.33632653,4.07254545 C8.89028571,3.82625455 9.46481633,3.64236364 10.0491429,3.51330909 C10.0540408,3.51236364 10.0594286,3.51283636 10.0643265,3.51189091 C11.2711837,3.25 12.5559184,3.23818182 13.7769796,3.47974545 C13.7833469,3.48116364 13.7897143,3.47832727 13.7960816,3.47927273 C14.4347755,3.60785455 15.0636735,3.80261818 15.669551,4.06970909 C17.4764082,4.8672 19.2920816,6.84036364 19.2749388,9.45501818 L19.2749388,13.7095636 C19.2749388,16.5615273 20.3402449,19.2135273 22.3670204,21.4296727 L18.6171429,22.0541455 Z" id="Shape"></path>
                    </g>
                </g>
            </g>
        </g>
    </g>
</svg>