<svg id="レイヤー_1" data-name="レイヤー 1" xmlns="http://www.w3.org/2000/svg" xmlns:xlink="http://www.w3.org/1999/xlink" viewBox="0 0 1133.86 1133.86"><defs><style>.cls-1{fill:#fff;}.cls-2{fill:#f4dc24;}.cls-3{fill:#7594cc;}.cls-4{clip-path:url(#clip-path);}.cls-5{fill:#595757;opacity:0.58;}.cls-6{fill:#c9caca;}.cls-7{clip-path:url(#clip-path-2);}.cls-8{clip-path:url(#clip-path-3);}.cls-9{fill:none;}</style><clipPath id="clip-path"><circle class="cls-1" cx="235.76" cy="372.45" r="88.7"/></clipPath><clipPath id="clip-path-2"><circle class="cls-1" cx="235.76" cy="780.41" r="88.7"/></clipPath><clipPath id="clip-path-3"><circle class="cls-2" cx="943.7" cy="576.43" r="88.7"/></clipPath></defs><title>アートボード 2 のコピー</title><rect class="cls-3" x="28.35" y="28.35" width="1077.17" height="1077.17" rx="538.58" ry="538.58"/><circle class="cls-1" cx="235.76" cy="372.45" r="88.7"/><g class="cls-4"><path class="cls-2" d="M210.21,404.58h51.1a29,29,0,0,1,29,29v58.31a0,0,0,0,1,0,0H181.17a0,0,0,0,1,0,0V433.62a29,29,0,0,1,29-29Z"/></g><rect class="cls-2" x="207.52" y="345.72" width="56.49" height="70.61" rx="28.24" ry="28.24"/><path class="cls-1" d="M235.76,345.72A28.24,28.24,0,0,1,264,374v14.12a28.24,28.24,0,1,1-56.49,0V374a28.24,28.24,0,0,1,28.24-28.24m0-3.32A31.6,31.6,0,0,0,204.19,374v14.12a31.57,31.57,0,1,0,63.13,0V374a31.6,31.6,0,0,0-31.57-31.57Z"/><path class="cls-5" d="M339.59,783.69H379a40.56,40.56,0,0,1,40.56-40.56h287.3a40.56,40.56,0,1,1,0,81.11H419.52a40.54,40.54,0,0,1-36.09-22.06Z"/><path class="cls-6" d="M335,777.13h39.37a40.56,40.56,0,0,1,40.56-40.56h287.3a40.56,40.56,0,1,1,0,81.11H414.91a40.54,40.54,0,0,1-36.09-22.06Z"/><circle class="cls-1" cx="235.76" cy="780.41" r="88.7"/><g class="cls-7"><path class="cls-2" d="M210.21,812.54h51.1a29,29,0,0,1,29,29v58.31a0,0,0,0,1,0,0H181.17a0,0,0,0,1,0,0V841.58a29,29,0,0,1,29-29Z"/></g><rect class="cls-2" x="207.52" y="753.68" width="56.49" height="70.61" rx="28.24" ry="28.24"/><path class="cls-1" d="M235.76,753.68A28.24,28.24,0,0,1,264,781.92V796a28.24,28.24,0,1,1-56.49,0V781.92a28.24,28.24,0,0,1,28.24-28.24m0-3.32a31.6,31.6,0,0,0-31.57,31.57V796a31.57,31.57,0,1,0,63.13,0V781.92a31.6,31.6,0,0,0-31.57-31.57Z"/><path class="cls-5" d="M339.59,375.73H379a40.56,40.56,0,0,1,40.56-40.56h287.3a40.56,40.56,0,1,1,0,81.11H419.52a40.54,40.54,0,0,1-36.09-22.06Z"/><path class="cls-6" d="M335,369.17h39.37a40.56,40.56,0,0,1,40.56-40.56h287.3a40.56,40.56,0,1,1,0,81.11H414.91a40.54,40.54,0,0,1-36.09-22.06Z"/><circle class="cls-2" cx="943.7" cy="576.43" r="88.7"/><g class="cls-8"><path class="cls-1" d="M889.11,608.56H998.29a0,0,0,0,1,0,0v58.31a29,29,0,0,1-29,29h-51.1a29,29,0,0,1-29-29V608.56A0,0,0,0,1,889.11,608.56Z" transform="translate(1887.4 1304.47) rotate(-180)"/></g><rect class="cls-1" x="915.46" y="549.7" width="56.49" height="70.61" rx="28.24" ry="28.24" transform="translate(1887.4 1170.01) rotate(-180)"/><path class="cls-9" d="M943.7,549.7a28.24,28.24,0,0,0-28.24,28.24v14.12a28.24,28.24,0,1,0,56.49,0V577.94A28.24,28.24,0,0,0,943.7,549.7Z"/><path class="cls-2" d="M943.7,546.38a31.6,31.6,0,0,0-31.57,31.57v14.12a31.57,31.57,0,1,0,63.13,0V577.94A31.6,31.6,0,0,0,943.7,546.38Zm28.24,45.69a28.24,28.24,0,1,1-56.49,0V577.94a28.24,28.24,0,1,1,56.49,0Z"/><path class="cls-5" d="M843.63,579.71H804.26a40.56,40.56,0,0,0-40.56-40.56H476.4a40.56,40.56,0,1,0,0,81.11H763.7a40.54,40.54,0,0,0,36.09-22.06Z"/><path class="cls-1" d="M848.24,573.15H808.87a40.56,40.56,0,0,0-40.56-40.56H481a40.56,40.56,0,1,0,0,81.11h287.3a40.54,40.54,0,0,0,36.09-22.06Z"/></svg>