<svg id="レイヤー_1" data-name="レイヤー 1" xmlns="http://www.w3.org/2000/svg" viewBox="0 0 1133.86 1133.86"><defs><style>.cls-1{fill:#7594cc;}.cls-2{fill:#898989;}.cls-3{fill:#f4dc24;}.cls-4{fill:#3e3a39;}.cls-5{fill:#fff;}.cls-6,.cls-7{fill:none;stroke:#231815;stroke-miterlimit:10;}.cls-6{stroke-width:1.9px;}.cls-7{stroke-width:2.85px;}</style></defs><title>アートボード 1 のコピー 3</title><rect class="cls-1" x="28.35" y="28.35" width="1077.17" height="1077.17" rx="538.58" ry="538.58"/><polygon class="cls-2" points="825.12 853.93 821.56 889.18 838.7 929.77 855.83 889.18 852.67 853.93 825.12 853.93"/><rect class="cls-3" x="815.5" y="252.3" width="46.39" height="252.46"/><rect class="cls-3" x="819.47" y="504.76" width="38.45" height="287.11"/><rect class="cls-2" x="821.56" y="791.87" width="34.27" height="62.06"/><polygon class="cls-2" points="855.22 252.3 822.17 252.3 826.48 243.11 850.91 243.11 855.22 252.3"/><path class="cls-2" d="M834.7,252.3h8a0,0,0,0,1,0,0v99.8a1.7,1.7,0,0,1-1.7,1.7h-4.58a1.7,1.7,0,0,1-1.7-1.7V252.3A0,0,0,0,1,834.7,252.3Z"/><polygon class="cls-4" points="839.17 928.64 838.7 929.77 838.22 928.64 838.22 893.79 839.17 893.79 839.17 928.64"/><ellipse class="cls-4" cx="838.7" cy="891.85" rx="2.96" ry="2.98"/><rect class="cls-3" x="271.97" y="243.6" width="469.97" height="687.29"/><rect class="cls-5" x="300.06" y="265.41" width="413.78" height="635.51"/><rect class="cls-2" x="362.08" y="202.97" width="289.76" height="81.27"/><rect class="cls-6" x="363.19" y="358.65" width="59.57" height="59.57"/><polyline class="cls-7" points="376.56 388.44 392.84 404.52 450.05 349.75"/><rect class="cls-6" x="363.19" y="491.36" width="59.57" height="59.57"/><polyline class="cls-7" points="376.56 521.14 392.84 537.22 450.05 482.45"/><rect class="cls-6" x="363.19" y="624.06" width="59.57" height="59.57"/><polyline class="cls-7" points="376.56 653.85 392.84 669.93 450.05 615.16"/><rect class="cls-6" x="363.19" y="756.77" width="59.57" height="59.57"/><polyline class="cls-7" points="376.56 786.55 392.84 802.63 450.05 747.86"/></svg>