<?xml version="1.0" encoding="UTF-8"?>
<svg width="94px" height="60px" viewBox="0 0 94 60" version="1.1" xmlns="http://www.w3.org/2000/svg" xmlns:xlink="http://www.w3.org/1999/xlink">
    <!-- Generator: Sketch 42 (36781) - http://www.bohemiancoding.com/sketch -->
    <title>wave_logo</title>
    <desc>Created with Sketch.</desc>
    <defs></defs>
    <g id="Page-1" stroke="none" stroke-width="1" fill="none" fill-rule="evenodd">
        <g id="wave_logo" fill-rule="nonzero" fill="#7594CC">
            <g id="Group">
                <path d="M32.3,37.1 L33.8,37 C34.3,37 34.8,36.9 35.3,36.8 C37.2,36.6 39.2,36.2 41,35.6 C41.5,35.5 41.9,35.3 42.3,35.1 L47,21.1 L50.5,31.5 C51.1,31.3 51.6,31 52.2,30.9 C54.2,30.3 56.3,29.8 58.4,29.7 C58.9,29.7 59.4,29.6 60,29.6 L61.6,29.6 L63.6,29.6 L54,0.7 L40.1,0.7 L27.9,37 C28.4,37 28.9,37.1 29.4,37.1 C30.4,37.1 31.3,37.2 32.3,37.1 Z" id="Shape"></path>
                <path d="M12.2,32.3 C16.1,33.7 19.6,35.8 23.5,36.5 C24,36.6 24.5,36.7 25,36.8 C25.5,36.9 26,37 26.5,37 L26.6,37 L14.4,0.7 L0.7,0.7 L11.2,31.9 C11.5,32.1 11.9,32.1 12.2,32.3 Z" id="Shape"></path>
                <path d="M76.8,32.9 C78.5,33.7 80,34.6 81.7,35.4 L93.3,0.8 L79.6,0.8 L69.7,30.4 C70.1,30.5 70.6,30.6 71,30.7 C73,31.1 75,31.9 76.8,32.9 Z" id="Shape"></path>
                <path d="M82.3,37.1 L82.3,37.1 C81.9,37 81.6,36.8 81.3,36.7 C79.8,36 78.4,35.2 76.9,34.4 C75,33.4 73.1,32.6 71.1,32.1 C70.6,31.9 70.1,31.8 69.6,31.7 L69.4,31.7 C69,31.6 68.5,31.5 68.1,31.4 C67.1,31.3 66,31.1 65,31.1 L64.3,31.1 C63.5,31.1 62.6,31 61.8,31.1 L60,31 C59.5,31 59,31.1 58.4,31.1 C56.3,31.3 54.2,31.7 52.2,32.3 C51.8,32.4 51.4,32.6 50.9,32.8 C49.4,33.4 47.8,34 46.4,34.7 C44.9,35.5 43.3,36.1 41.7,36.7 C41.5,36.8 41.2,36.9 41,37 C39.2,37.6 37.3,38 35.3,38.2 C34.8,38.2 34.3,38.3 33.8,38.4 L32.3,38.5 C31.3,38.6 30.3,38.5 29.3,38.5 C28.6,38.5 28,38.5 27.3,38.4 L27,38.4 L26.4,38.4 C25.9,38.4 25.4,38.3 24.9,38.2 C24.4,38.1 23.9,38.1 23.5,37.9 C19.6,37.2 16.1,35.1 12.2,33.7 L11.8,33.6 L11.7,33.5 L11.7,33.5 L11.7,33.5 C7.9,32.3 4,31.9 0.1,32.2 C4.1,32.4 8.1,33.3 11.8,34.9 L12.3,35.2 L20.4,59.2 L34.2,59.2 L40.7,40 C41.1,39.9 41.5,39.8 41.9,39.7 C43.9,39 45.8,38.2 47.7,37.3 C49.1,36.6 50.5,36 51.9,35.4 L59.9,59.2 L73.7,59.2 L80.8,38 L81.8,38.4 C85.7,39.7 89.9,40.2 94,39.9 C89.9,39.6 86,38.7 82.3,37.1 Z M66.7,39 L64.9,33.6 C65.8,33.6 66.7,33.7 67.5,33.8 L68.4,33.9 L66.7,39 Z" id="Shape"></path>
            </g>
        </g>
    </g>
</svg>